# Blender v2.79 (sub 0) OBJ File: 'scena.blend'
# www.blender.org
mtllib chest3.mtl
o treasure_chest.001
v 3.471389 0.747530 -5.919068
v 3.374896 0.807836 -5.939578
v 3.350606 0.807836 -5.825305
v 3.447099 0.747530 -5.804795
v 3.531233 0.102190 -5.906348
v 3.530716 0.639749 -5.906457
v 3.506426 0.639749 -5.792184
v 3.506943 0.102190 -5.792075
v 3.113796 0.102190 -6.982433
v 3.114313 0.639749 -6.982323
v 3.138603 0.639749 -7.096596
v 3.138086 0.102190 -7.096706
v 3.294423 0.807836 -7.063476
v 3.270133 0.807836 -6.949203
v 3.373221 0.834815 -6.927290
v 3.397510 0.834815 -7.041564
v 3.496895 0.834815 -7.020439
v 3.472605 0.834815 -6.906166
v 3.575693 0.807836 -6.884254
v 3.599982 0.807836 -6.998527
v 3.197929 0.747530 -7.083986
v 3.173640 0.747530 -6.969713
v 3.696475 0.747530 -6.978017
v 3.672186 0.747530 -6.863744
v 3.756319 0.102190 -6.965297
v 3.755802 0.639749 -6.965406
v 3.731513 0.639749 -6.851133
v 3.732029 0.102190 -6.851024
v 2.888710 0.102190 -5.923484
v 2.889227 0.639749 -5.923374
v 2.913516 0.639749 -6.037647
v 2.913000 0.102190 -6.037757
v 3.045047 0.807836 -5.890254
v 3.148134 0.834815 -5.868341
v 3.172424 0.834815 -5.982615
v 3.069336 0.807836 -6.004527
v 3.247519 0.834815 -5.847217
v 3.271808 0.834815 -5.961490
v 2.948553 0.747530 -5.910764
v 2.972843 0.747530 -6.025037
v 3.510245 0.736290 -6.157747
v 3.418988 0.792934 -6.177144
v 3.368769 0.792934 -5.940880
v 3.460026 0.736290 -5.921483
v 3.565641 0.102190 -6.145972
v 3.565641 0.635652 -6.145972
v 3.515422 0.635652 -5.909708
v 3.515422 0.102190 -5.909708
v 3.079388 0.102190 -6.742809
v 3.079388 0.635652 -6.742809
v 3.129607 0.635652 -6.979072
v 3.129607 0.102190 -6.979072
v 3.226041 0.792934 -6.711637
v 3.324974 0.818777 -6.690608
v 3.375193 0.818777 -6.926871
v 3.276260 0.792934 -6.947900
v 3.420413 0.818777 -6.670321
v 3.519346 0.792934 -6.649293
v 3.569566 0.792934 -6.885556
v 3.470633 0.818777 -6.906585
v 3.134784 0.736290 -6.731034
v 3.185003 0.736290 -6.967298
v 3.660823 0.736290 -6.866159
v 3.610603 0.736290 -6.629895
v 3.716219 0.102190 -6.854384
v 3.716219 0.635652 -6.854384
v 3.665999 0.635652 -6.618121
v 3.665999 0.102190 -6.618121
v 2.928810 0.102190 -6.034397
v 2.928810 0.635652 -6.034397
v 2.979030 0.635652 -6.270660
v 2.979030 0.102190 -6.270660
v 3.075464 0.792934 -6.003224
v 3.174396 0.818777 -5.982196
v 3.224616 0.818777 -6.218459
v 3.125683 0.792934 -6.239488
v 3.269836 0.818777 -5.961909
v 3.320055 0.818777 -6.198173
v 2.984206 0.736290 -6.022622
v 3.034426 0.736290 -6.258885
v 3.526269 0.736290 -6.233131
v 3.594580 0.736290 -6.554511
v 3.503323 0.792934 -6.573908
v 3.435012 0.792934 -6.252529
v 3.581665 0.102190 -6.221357
v 3.649976 0.102190 -6.542736
v 3.649976 0.635652 -6.542736
v 3.581665 0.635652 -6.221357
v 3.063364 0.102190 -6.667424
v 2.995053 0.102190 -6.346045
v 2.995053 0.635652 -6.346045
v 3.063364 0.635652 -6.667424
v 3.210018 0.792934 -6.636252
v 3.141706 0.792934 -6.314873
v 3.240639 0.818777 -6.293844
v 3.308950 0.818777 -6.615223
v 3.404390 0.818777 -6.594937
v 3.336079 0.818777 -6.273558
v 3.118760 0.736290 -6.655649
v 3.050449 0.736290 -6.334270
v 3.515186 0.741177 -6.156696
v 3.531209 0.741177 -6.232081
v 3.437675 0.799413 -6.251963
v 3.421652 0.799413 -6.176578
v 3.572515 0.102190 -6.144511
v 3.588539 0.102190 -6.219895
v 3.588315 0.637433 -6.219944
v 3.572291 0.637433 -6.144558
v 3.072514 0.102190 -6.744270
v 3.056490 0.102190 -6.668885
v 3.056715 0.637433 -6.668837
v 3.072738 0.637433 -6.744222
v 3.223377 0.799413 -6.712203
v 3.207354 0.799413 -6.636818
v 3.308093 0.825750 -6.615405
v 3.324116 0.825750 -6.690790
v 3.421271 0.825750 -6.670139
v 3.405247 0.825750 -6.594754
v 3.505986 0.799413 -6.573342
v 3.522010 0.799413 -6.648726
v 3.129843 0.741177 -6.732084
v 3.113820 0.741177 -6.656699
v 3.599520 0.741177 -6.553460
v 3.615544 0.741177 -6.628845
v 3.656850 0.102190 -6.541275
v 3.672874 0.102190 -6.616660
v 3.672649 0.637433 -6.616707
v 3.656626 0.637433 -6.541322
v 2.988179 0.102190 -6.347506
v 2.972155 0.102190 -6.272121
v 2.972380 0.637433 -6.272073
v 2.988403 0.637433 -6.347458
v 3.139043 0.799413 -6.315439
v 3.123019 0.799413 -6.240054
v 3.223758 0.825750 -6.218641
v 3.239782 0.825750 -6.294026
v 3.336936 0.825750 -6.273376
v 3.320913 0.825750 -6.197990
v 3.045509 0.741177 -6.335320
v 3.029485 0.741177 -6.259935
v 3.064393 0.761011 -5.886141
v 2.985124 0.711470 -5.902991
v 2.938382 0.626554 -5.912926
v 3.331260 0.761011 -5.829417
v 2.937927 0.102250 -5.913023
v 3.457726 0.102250 -5.802536
v 3.457271 0.626554 -5.802633
v 3.410529 0.711470 -5.812568
v 3.154328 0.784548 -5.867025
v 3.241325 0.784548 -5.848533
v 3.580636 0.761011 -7.002639
v 3.659905 0.711470 -6.985790
v 3.706647 0.626554 -6.975855
v 3.313769 0.761011 -7.059363
v 3.707102 0.102250 -6.975758
v 3.187303 0.102250 -7.086245
v 3.187758 0.626554 -7.086148
v 3.234500 0.711470 -7.076213
v 3.490701 0.784548 -7.021755
v 3.403704 0.784548 -7.040247
v 3.044254 0.560991 -6.570460
v 3.042188 0.523896 -6.560739
v 3.032463 0.523896 -6.562806
v 3.034529 0.560991 -6.572527
v 3.036542 0.496740 -6.534176
v 3.026817 0.496740 -6.536243
v 3.028829 0.486800 -6.497892
v 3.019104 0.486800 -6.499959
v 3.021117 0.496740 -6.461607
v 3.011392 0.496740 -6.463675
v 3.015471 0.523896 -6.435045
v 3.005746 0.523896 -6.437112
v 3.013404 0.560991 -6.425323
v 3.003679 0.560991 -6.427390
v 3.015471 0.598086 -6.435045
v 3.005746 0.598086 -6.437112
v 3.021117 0.625242 -6.461607
v 3.011392 0.625242 -6.463675
v 3.028829 0.635181 -6.497892
v 3.019104 0.635181 -6.499959
v 3.036542 0.625242 -6.534176
v 3.026817 0.625242 -6.536243
v 3.042188 0.598086 -6.560739
v 3.032463 0.598086 -6.562806
vt 0.291523 0.810757
vt 0.169396 0.810756
vt 0.169394 0.998407
vt 0.291521 0.998409
vt 0.999808 0.810764
vt 0.423375 0.810758
vt 0.423373 0.998410
vt 0.999807 0.998416
vt 0.999955 0.810878
vt 0.420667 0.810864
vt 0.420665 0.998845
vt 0.999952 0.998858
vt 0.171546 0.998838
vt 0.171548 0.810857
vt 0.056325 0.810855
vt 0.056323 0.998836
vt -0.052142 0.998833
vt -0.052140 0.810852
vt -0.168605 0.810851
vt -0.168606 0.998832
vt 0.291433 0.998841
vt 0.291435 0.810860
vt -0.290736 0.998831
vt -0.290735 0.810850
vt -0.999040 0.998824
vt -0.422592 0.998829
vt -0.422590 0.810848
vt -0.999039 0.810843
vt -0.999134 0.998381
vt -0.419862 0.998395
vt -0.419860 0.810744
vt -0.999132 0.810730
vt -0.170749 0.998401
vt -0.055530 0.998405
vt -0.055528 0.810753
vt -0.170747 0.810749
vt 0.052933 0.998406
vt 0.052934 0.810755
vt -0.290634 0.998398
vt -0.290632 0.810747
vt 1.483708 0.490579
vt 1.483708 0.574998
vt 1.621728 0.574999
vt 1.621728 0.490580
vt 1.483709 0.000985
vt 1.483708 0.399438
vt 1.621728 0.399439
vt 1.621729 0.000987
vt 1.483710 0.001073
vt 1.483707 0.401487
vt 1.621727 0.401489
vt 1.621731 0.001075
vt 1.483705 0.573683
vt 1.483705 0.653327
vt 1.621725 0.653330
vt 1.621725 0.573686
vt 1.207888 0.655497
vt 1.207888 0.574995
vt 1.069868 0.574994
vt 1.069868 0.655496
vt 1.483706 0.490815
vt 1.621726 0.490817
vt 1.483705 0.592951
vt 1.483704 0.667924
vt 1.621724 0.667927
vt 1.621725 0.592953
vt 1.069868 0.490575
vt 1.207888 0.490576
vt 1.069869 0.000982
vt 1.069868 0.399434
vt 1.207889 0.399435
vt 1.207889 0.000983
vt 1.069870 0.001066
vt 1.069867 0.401480
vt 1.207887 0.401482
vt 1.207891 0.001068
vt 1.069866 0.573676
vt 1.069865 0.653321
vt 1.207885 0.653323
vt 1.207886 0.573679
vt 1.621728 0.655501
vt 1.483708 0.655500
vt 1.069866 0.490808
vt 1.207886 0.490810
vt 1.069865 0.592944
vt 1.069864 0.667918
vt 1.207884 0.667920
vt 1.207885 0.592946
vt 1.439670 0.490579
vt 1.251927 0.490577
vt 1.251927 0.574995
vt 1.439669 0.574997
vt 1.439670 0.000985
vt 1.251927 0.000983
vt 1.251927 0.399436
vt 1.439670 0.399437
vt 1.439672 0.001072
vt 1.251929 0.001069
vt 1.251926 0.401483
vt 1.439669 0.401486
vt 1.439667 0.573683
vt 1.251924 0.573679
vt 1.251923 0.653323
vt 1.439666 0.653327
vt 1.251927 0.655498
vt 1.439669 0.655500
vt 1.439668 0.490814
vt 1.251925 0.490811
vt 1.439666 0.592950
vt 1.251923 0.592947
vt 1.251923 0.667920
vt 1.439666 0.667924
vt 0.354454 0.687211
vt 0.354454 0.780390
vt 0.415498 0.780390
vt 0.415498 0.687212
vt 0.000424 0.687210
vt 0.000424 0.780389
vt 0.288549 0.780390
vt 0.288549 0.687211
vt 0.999567 0.780463
vt 0.999568 0.687500
vt 0.710041 0.687493
vt 0.710040 0.780456
vt 0.585530 0.780452
vt 0.585531 0.687490
vt 0.527943 0.687488
vt 0.527942 0.780451
vt 0.473732 0.780450
vt 0.473732 0.687487
vt 0.415523 0.687486
vt 0.415523 0.780450
vt 0.645450 0.780454
vt 0.645451 0.687491
vt 0.354483 0.687486
vt 0.354483 0.780450
vt 0.000473 0.687485
vt 0.000473 0.780448
vt 0.288581 0.780449
vt 0.288581 0.687486
vt 0.999575 0.780404
vt 0.999576 0.687225
vt 0.710032 0.687218
vt 0.710032 0.780396
vt 0.585515 0.780394
vt 0.585515 0.687215
vt 0.527924 0.687213
vt 0.527923 0.780392
vt 0.473710 0.780391
vt 0.473710 0.687212
vt 0.645438 0.780394
vt 0.645438 0.687216
vt 0.029498 0.126780
vt 0.079271 0.043647
vt 0.164586 -0.005372
vt 0.029498 0.406652
vt 0.691354 -0.005850
vt 0.691354 0.539281
vt 0.164586 0.538804
vt 0.079271 0.489784
vt 0.005850 0.221097
vt 0.005850 0.312335
vt 0.029498 0.406652
vt 0.079272 0.489784
vt 0.164587 0.538804
vt 0.029498 0.126780
vt 0.691354 0.539281
vt 0.691354 -0.005850
vt 0.164587 -0.005372
vt 0.079272 0.043647
vt 0.005850 0.312335
vt 0.005850 0.221097
vt -0.999134 0.808115
vt -0.419862 0.808129
vt -0.290634 0.808132
vt -0.170749 0.808135
vt -0.055530 0.808139
vt 0.052933 0.808140
vt 0.169394 0.808141
vt 0.291521 0.808143
vt 0.423373 0.808144
vt 0.999807 0.808150
vt -0.999040 0.808557
vt -0.422592 0.808563
vt -0.290736 0.808564
vt -0.168606 0.808565
vt -0.052142 0.808567
vt 0.056323 0.808570
vt 0.171546 0.808572
vt 0.291433 0.808575
vt 0.420665 0.808579
vt 0.999952 0.808592
vt 0.830916 0.334934
vt 0.830916 0.345011
vt 0.809822 0.345011
vt 0.809822 0.334934
vt 0.830916 0.355088
vt 0.809822 0.355088
vt 0.830916 0.365165
vt 0.809822 0.365165
vt 0.830916 0.244243
vt 0.830916 0.254319
vt 0.809822 0.254319
vt 0.809822 0.244243
vt 0.830916 0.264396
vt 0.809822 0.264396
vt 0.830916 0.274473
vt 0.809822 0.274473
vt 0.830916 0.284550
vt 0.809822 0.284550
vt 0.830916 0.294627
vt 0.809822 0.294627
vt 0.830916 0.304704
vt 0.809822 0.304704
vt 0.830916 0.314781
vt 0.809822 0.314781
vt 0.830916 0.324857
vt 0.809822 0.324857
vt 0.728829 0.164742
vt 0.767396 0.089108
vt 0.820079 0.061423
vt 0.728829 0.371380
vt 0.872762 0.089108
vt 0.911328 0.164742
vt 0.911328 0.371380
vt 0.925445 0.268061
vt 0.872762 0.447014
vt 0.820079 0.474699
vt 0.767396 0.447014
vt 0.714713 0.268061
vn 0.7040 0.6942 0.1496
vn 0.3806 0.9212 0.0809
vn 0.9781 0.0010 0.2079
vn 0.9461 0.2540 0.2011
vn -0.9781 0.0010 -0.2079
vn -0.9461 0.2540 -0.2011
vn -0.3806 0.9212 -0.0809
vn -0.1222 0.9922 -0.0260
vn 0.1222 0.9922 0.0260
vn -0.7040 0.6942 -0.1496
vn 0.7030 0.6953 0.1494
vn 0.3790 0.9219 0.0806
vn 0.9781 0.0000 0.2079
vn 0.9462 0.2535 0.2011
vn -0.9781 0.0000 -0.2079
vn -0.9462 0.2535 -0.2011
vn -0.3790 0.9219 -0.0806
vn -0.1220 0.9922 -0.0259
vn 0.1220 0.9922 0.0259
vn -0.7030 0.6953 -0.1494
vn 0.7035 0.6948 0.1495
vn 0.3797 0.9216 0.0807
vn 0.9781 0.0004 0.2079
vn 0.9461 0.2537 0.2011
vn -0.9781 0.0004 -0.2079
vn -0.9461 0.2537 -0.2011
vn -0.3797 0.9216 -0.0807
vn -0.1221 0.9922 -0.0260
vn 0.1221 0.9922 0.0260
vn -0.7035 0.6948 -0.1495
vn -0.2079 -0.0000 0.9781
vn -0.2080 -0.0000 0.9781
vn -0.2079 -0.0000 0.9782
vn 0.2079 -0.0000 -0.9781
vn 0.2079 -0.0000 -0.9782
vn 0.2078 -0.0000 -0.9782
vn 0.2080 -0.0000 -0.9781
vn 0.0014 -1.0000 0.0002
vn 0.0009 -1.0000 0.0001
vn 0.0013 -1.0000 0.0002
vn -0.0000 -1.0000 -0.0005
vn -0.0000 -1.0000 -0.0004
vn -0.0001 -1.0000 -0.0000
vn -0.0000 -1.0000 -0.0000
vn 0.0006 -1.0000 0.0001
vn -0.0010 -1.0000 -0.0002
vn -0.0004 -1.0000 -0.0001
vn -0.0014 -1.0000 -0.0002
vn -0.0009 -1.0000 -0.0001
vn -0.0005 -1.0000 0.0000
vn 0.0000 -1.0000 0.0005
vn 0.0000 -1.0000 0.0004
vn 0.0001 -1.0000 0.0000
vn 0.0004 -1.0000 0.0001
vn 0.0011 -1.0000 0.0002
vn 0.1800 -0.5000 -0.8471
vn 0.1040 -0.8660 -0.4891
vn -0.1040 -0.8660 0.4891
vn -0.1800 -0.5000 0.8471
vn -0.1801 0.5000 0.8471
vn -0.1040 0.8660 0.4891
vn -0.0000 1.0000 0.0000
vn 0.1039 0.8660 -0.4891
vn 0.1800 0.5000 -0.8471
vn -0.9782 0.0000 -0.2079
usemtl treasure_chest
s 1
f 1/1/1 2/2/2 3/3/2 4/4/1
f 5/5/3 6/6/4 7/7/4 8/8/3
f 9/9/5 10/10/6 11/11/6 12/12/5
f 13/13/7 14/14/7 15/15/8 16/16/8
f 17/17/9 18/18/9 19/19/2 20/20/2
f 21/21/10 22/22/10 14/14/7 13/13/7
f 7/7/4 6/6/4 1/1/1 4/4/1
f 11/11/6 10/10/6 22/22/10 21/21/10
f 16/16/8 15/15/8 18/18/9 17/17/9
f 23/23/1 20/20/2 19/19/2 24/24/1
f 25/25/3 26/26/4 27/27/4 28/28/3
f 29/29/5 30/30/6 31/31/6 32/32/5
f 33/33/7 34/34/8 35/35/8 36/36/7
f 37/37/9 3/3/2 2/2/2 38/38/9
f 39/39/10 33/33/7 36/36/7 40/40/10
f 26/26/4 23/23/1 24/24/1 27/27/4
f 30/30/6 39/39/10 40/40/10 31/31/6
f 34/34/8 37/37/9 38/38/9 35/35/8
f 41/41/11 42/42/12 43/43/12 44/44/11
f 45/45/13 46/46/14 47/47/14 48/48/13
f 49/49/15 50/50/16 51/51/16 52/52/15
f 53/53/17 54/54/18 55/55/18 56/56/17
f 57/57/19 58/58/12 59/59/12 60/60/19
f 61/61/20 53/53/17 56/56/17 62/62/20
f 46/46/14 41/41/11 44/44/11 47/47/14
f 50/50/16 61/61/20 62/62/20 51/51/16
f 54/63/18 57/64/19 60/65/19 55/66/18
f 63/67/11 59/59/12 58/58/12 64/68/11
f 65/69/13 66/70/14 67/71/14 68/72/13
f 69/73/15 70/74/16 71/75/16 72/76/15
f 73/77/17 74/78/18 75/79/18 76/80/17
f 77/81/19 43/43/12 42/42/12 78/82/19
f 79/83/20 73/77/17 76/80/17 80/84/20
f 66/70/14 63/67/11 64/68/11 67/71/14
f 70/74/16 79/83/20 80/84/20 71/75/16
f 74/85/18 77/86/19 78/87/19 75/88/18
f 81/89/11 82/90/11 83/91/12 84/92/12
f 85/93/13 86/94/13 87/95/14 88/96/14
f 89/97/15 90/98/15 91/99/16 92/100/16
f 93/101/17 94/102/17 95/103/18 96/104/18
f 97/105/19 98/106/19 84/92/12 83/91/12
f 99/107/20 100/108/20 94/102/17 93/101/17
f 88/96/14 87/95/14 82/90/11 81/89/11
f 92/100/16 91/99/16 100/108/20 99/107/20
f 96/109/18 95/110/18 98/111/19 97/112/19
f 101/113/21 102/114/21 103/115/22 104/116/22
f 105/117/23 106/118/23 107/119/24 108/120/24
f 109/121/25 110/122/25 111/123/26 112/124/26
f 113/125/27 114/126/27 115/127/28 116/128/28
f 117/129/29 118/130/29 119/131/22 120/132/22
f 121/133/30 122/134/30 114/126/27 113/125/27
f 108/120/24 107/119/24 102/114/21 101/113/21
f 112/124/26 111/123/26 122/134/30 121/133/30
f 116/128/28 115/127/28 118/130/29 117/129/29
f 123/135/21 124/136/21 120/132/22 119/131/22
f 125/137/23 126/138/23 127/139/24 128/140/24
f 129/141/25 130/142/25 131/143/26 132/144/26
f 133/145/27 134/146/27 135/147/28 136/148/28
f 137/149/29 138/150/29 104/116/22 103/115/22
f 139/151/30 140/152/30 134/146/27 133/145/27
f 128/140/24 127/139/24 124/136/21 123/135/21
f 132/144/26 131/143/26 140/152/30 139/151/30
f 136/148/28 135/147/28 138/150/29 137/149/29
f 42/42/31 41/41/32 101/113/32 104/116/31
f 41/41/32 46/46/31 108/120/31 101/113/32
f 46/46/31 45/45/33 105/117/33 108/120/31
f 85/93/34 88/96/34 107/119/34 106/118/34
f 88/96/34 81/89/35 102/114/35 107/119/34
f 81/89/35 84/92/34 103/115/34 102/114/35
f 84/92/34 98/106/34 137/149/34 103/115/34
f 98/111/34 95/110/34 136/148/34 137/149/34
f 95/103/34 94/102/34 133/145/34 136/148/34
f 94/102/34 100/108/35 139/151/35 133/145/34
f 100/108/35 91/99/35 132/144/35 139/151/35
f 91/99/35 90/98/35 129/141/35 132/144/35
f 72/76/33 71/75/31 131/143/31 130/142/33
f 71/75/31 80/84/31 140/152/31 131/143/31
f 80/84/31 76/80/31 134/146/31 140/152/31
f 76/80/31 75/79/31 135/147/31 134/146/31
f 75/88/31 78/87/31 138/150/31 135/147/31
f 78/82/31 42/42/31 104/116/31 138/150/31
f 50/50/35 49/49/36 109/121/36 112/124/35
f 89/97/31 92/100/31 111/123/31 110/122/31
f 92/100/31 99/107/31 122/134/31 111/123/31
f 99/107/31 93/101/31 114/126/31 122/134/31
f 93/101/31 96/104/31 115/127/31 114/126/31
f 96/109/31 97/112/31 118/130/31 115/127/31
f 97/105/31 83/91/33 119/131/33 118/130/31
f 83/91/33 82/90/31 123/135/31 119/131/33
f 82/90/31 87/95/31 128/140/31 123/135/31
f 87/95/31 86/94/31 125/137/31 128/140/31
f 68/72/35 67/71/34 127/139/34 126/138/35
f 67/71/34 64/68/37 124/136/37 127/139/34
f 64/68/37 58/58/34 120/132/34 124/136/37
f 58/58/34 57/57/34 117/129/34 120/132/34
f 57/64/34 54/63/34 116/128/34 117/129/34
f 54/54/34 53/53/34 113/125/34 116/128/34
f 53/53/34 61/61/34 121/133/34 113/125/34
f 61/61/34 50/50/35 112/124/35 121/133/34
f 141/153/31 142/154/31 143/155/31 144/156/31
f 143/155/31 145/157/31 146/158/31 144/156/31
f 146/158/31 147/159/31 148/160/31 144/156/31
f 149/161/31 141/153/31 144/156/31 150/162/31
f 48/48/37 47/47/37 6/6/37 5/5/37
f 47/47/37 44/44/34 1/1/34 6/6/37
f 44/44/34 43/43/34 2/2/34 1/1/34
f 43/43/34 77/81/34 38/38/34 2/2/34
f 77/86/34 74/85/34 35/35/34 38/38/34
f 74/78/34 73/77/34 36/36/34 35/35/34
f 73/77/34 79/83/34 40/40/34 36/36/34
f 79/83/34 70/74/34 31/31/34 40/40/34
f 70/74/34 69/73/34 32/32/34 31/31/34
f 151/163/34 152/164/34 153/165/34 154/166/34
f 153/165/34 155/167/34 156/168/34 154/166/34
f 156/168/34 157/169/34 158/170/34 154/166/34
f 159/171/34 151/163/34 154/166/34 160/172/34
f 52/52/31 51/51/31 10/10/31 9/9/31
f 51/51/31 62/62/31 22/22/31 10/10/31
f 62/62/31 56/56/31 14/14/31 22/22/31
f 56/56/31 55/55/31 15/15/31 14/14/31
f 55/66/31 60/65/31 18/18/31 15/15/31
f 60/60/31 59/59/31 19/19/31 18/18/31
f 59/59/31 63/67/33 24/24/33 19/19/31
f 63/67/33 66/70/33 27/27/33 24/24/33
f 66/70/33 65/69/31 28/28/31 27/27/33
f 29/29/31 145/173/31 143/174/31 30/30/31
f 30/30/31 143/174/31 142/175/31 39/39/31
f 39/39/31 142/175/31 141/176/31 33/33/31
f 33/33/31 141/176/31 149/177/31 34/34/31
f 34/34/31 149/177/31 150/178/31 37/37/31
f 37/37/31 150/178/31 144/179/31 3/3/31
f 3/3/31 144/179/31 148/180/31 4/4/31
f 4/4/31 148/180/31 147/181/31 7/7/31
f 7/7/31 147/181/31 146/182/31 8/8/31
f 25/25/35 155/183/34 153/184/34 26/26/34
f 26/26/34 153/184/34 152/185/34 23/23/34
f 23/23/34 152/185/34 151/186/34 20/20/34
f 20/20/34 151/186/34 159/187/34 17/17/34
f 17/17/34 159/187/34 160/188/34 16/16/34
f 16/16/34 160/188/34 154/189/34 13/13/34
f 13/13/34 154/189/34 158/190/34 21/21/34
f 21/21/34 158/190/34 157/191/34 11/11/34
f 11/11/34 157/191/34 156/192/34 12/12/34
f 52/52/38 9/9/39 12/12/39 156/192/40
f 155/183/41 25/25/41 28/28/42 156/192/40
f 156/192/40 28/28/42 65/69/43 68/72/44
f 68/72/44 126/138/44 125/137/44 86/94/44
f 156/192/40 68/72/44 86/94/44 90/98/45
f 85/93/46 106/118/44 105/117/44 45/45/47
f 48/48/48 5/5/49 8/8/49 146/182/50
f 45/45/47 48/48/48 146/182/50 85/93/46
f 86/94/44 85/93/46 146/182/50 90/98/45
f 145/173/51 29/29/51 32/32/52 146/182/50
f 146/182/50 32/32/52 69/73/53 72/76/53
f 72/76/53 130/142/44 129/141/44 90/98/45
f 146/182/50 72/76/53 90/98/45
f 156/192/40 90/98/45 89/97/54 49/49/55
f 89/97/54 110/122/44 109/121/44 49/49/55
f 52/52/38 156/192/40 49/49/55
f 161/193/35 162/194/56 163/195/56 164/196/35
f 162/194/56 165/197/57 166/198/57 163/195/56
f 165/197/57 167/199/44 168/200/44 166/198/57
f 167/201/44 169/202/58 170/203/58 168/204/44
f 169/202/58 171/205/59 172/206/59 170/203/58
f 171/205/59 173/207/33 174/208/33 172/206/59
f 173/207/33 175/209/60 176/210/60 174/208/33
f 175/209/60 177/211/61 178/212/61 176/210/60
f 177/211/61 179/213/62 180/214/62 178/212/61
f 179/213/62 181/215/63 182/216/63 180/214/62
f 181/215/63 183/217/64 184/218/64 182/216/63
f 183/217/64 161/193/35 164/196/35 184/218/64
f 163/219/15 166/220/15 168/221/15 184/222/15
f 168/221/15 170/223/15 172/224/15 176/225/15
f 172/224/15 174/226/65 176/225/15
f 176/225/15 178/227/15 180/228/15 184/222/15
f 180/228/15 182/229/15 184/222/15
f 168/221/15 176/225/15 184/222/15
f 164/230/15 163/219/15 184/222/15
