# Blender v2.79 (sub 0) OBJ File: 'scena.blend'
# www.blender.org
mtllib ammo.mtl
o amobox_Cube.000
v 6.546022 0.092387 8.123235
v 6.648372 0.092387 8.604751
v 6.648372 0.384431 8.604751
v 6.546022 0.384432 8.123235
v 5.831306 0.092387 8.778423
v 5.650766 0.092387 8.816798
v 5.650766 0.384431 8.816798
v 5.831306 0.384431 8.778423
v 5.548417 0.092387 8.335282
v 5.548417 0.384432 8.335282
v 6.365583 0.092387 8.161588
v 6.365583 0.384432 8.161588
v 5.728957 0.384432 8.296907
v 6.467933 0.092387 8.643105
v 6.467933 0.384431 8.643105
v 6.472039 0.072637 8.662423
v 6.356144 0.072637 8.687057
v 6.356144 0.384431 8.687057
v 6.472039 0.384431 8.662423
v 5.850585 0.092387 8.271054
v 6.249689 0.092387 8.186222
v 6.249689 0.384432 8.186222
v 5.850585 0.384432 8.271054
v 6.245583 0.072637 8.166903
v 6.361477 0.072637 8.142269
v 6.361477 0.384432 8.142269
v 6.245583 0.384432 8.166903
v 6.352038 0.384431 8.667739
v 5.952934 0.092387 8.752571
v 6.352038 0.092387 8.667739
v 5.952934 0.384431 8.752571
v 5.957040 0.072637 8.771890
v 5.835413 0.072637 8.797742
v 5.835413 0.384431 8.797742
v 5.957040 0.384431 8.771890
v 5.728957 0.092387 8.296907
v 5.724851 0.072637 8.277589
v 5.846478 0.072637 8.251736
v 5.846478 0.384432 8.251736
v 5.724851 0.384432 8.277589
vt 0.590378 0.592690
vt 0.752820 0.592690
vt 0.752820 0.318876
vt 0.590378 0.318876
vt 0.516262 0.641040
vt 0.516262 0.803482
vt 0.618926 0.803482
vt 0.618926 0.641040
vt 0.908134 0.303482
vt 0.908134 0.141040
vt 0.634320 0.141040
vt 0.634320 0.303482
vt 0.110303 0.981318
vt 0.110303 0.818876
vt 0.007697 0.818876
vt 0.007697 0.981318
vt 0.472320 0.603675
vt 0.574984 0.603675
vt 0.574984 0.329861
vt 0.472320 0.329861
vt 0.007697 0.292496
vt 0.110303 0.292496
vt 0.110303 0.018683
vt 0.007697 0.018683
vt 0.007697 0.641039
vt 0.007697 0.803481
vt 0.110303 0.803481
vt 0.110304 0.641040
vt 0.121289 0.630054
vt 0.121289 0.803481
vt 0.187192 0.803481
vt 0.187192 0.630054
vt 0.425128 0.981318
vt 0.425128 0.818876
vt 0.198178 0.818876
vt 0.198178 0.981318
vt 0.187192 0.992303
vt 0.187192 0.818876
vt 0.121289 0.818876
vt 0.121289 0.992303
vt 0.007697 0.603675
vt 0.110303 0.603675
vt 0.110303 0.329861
vt 0.007697 0.329861
vt 0.176207 0.603675
vt 0.176207 0.329861
vt 0.425127 0.018682
vt 0.198177 0.018683
vt 0.198177 0.292497
vt 0.425128 0.292497
vt 0.187191 0.007697
vt 0.121288 0.007698
vt 0.121289 0.303482
vt 0.187192 0.303482
vt 0.198178 0.641040
vt 0.198178 0.803482
vt 0.425128 0.803482
vt 0.425128 0.641040
vt 0.436113 0.630055
vt 0.436113 0.803482
vt 0.505276 0.803482
vt 0.505276 0.630055
vt 0.403157 0.603675
vt 0.403157 0.329861
vt 0.618926 0.981318
vt 0.618926 0.818876
vt 0.516262 0.818876
vt 0.516262 0.981318
vt 0.505276 0.992303
vt 0.505276 0.818876
vt 0.436113 0.818876
vt 0.436113 0.992303
vt 0.618925 0.018682
vt 0.516261 0.018682
vt 0.516262 0.292497
vt 0.618926 0.292497
vt 0.505275 0.007697
vt 0.436112 0.007697
vt 0.436113 0.303482
vt 0.505277 0.303482
vt 0.110303 0.318876
vt 0.176207 0.318876
vt 0.176207 0.614661
vt 0.110303 0.614660
vt 0.472320 0.614661
vt 0.403157 0.614661
vt 0.403157 0.318876
vt 0.472320 0.318876
vn 0.9781 0.0000 -0.2079
vn 0.2079 0.0000 0.9781
vn -0.9781 0.0000 0.2079
vn -0.2079 0.0000 -0.9781
vn 0.0000 1.0000 0.0000
vn -0.0000 -1.0000 -0.0000
vn -0.9782 0.0000 0.2079
usemtl amo
s off
f 1/1/1 4/2/1 3/3/1 2/4/1
f 5/5/2 8/6/2 7/7/2 6/8/2
f 6/9/3 7/10/3 10/11/3 9/12/3
f 11/13/4 12/14/4 4/15/4 1/16/4
f 13/17/5 10/18/5 7/19/5 8/20/5
f 2/21/6 14/22/6 11/23/6 1/24/6
f 2/25/2 3/26/2 15/27/2 14/28/2
f 16/29/2 19/30/2 18/31/2 17/32/2
f 20/33/4 23/34/4 22/35/4 21/36/4
f 24/37/4 27/38/4 26/39/4 25/40/4
f 4/41/5 12/42/5 15/43/5 3/44/5
f 12/42/5 22/45/5 28/46/5 15/43/5
f 20/47/6 21/48/6 30/49/6 29/50/6
f 24/51/6 25/52/6 16/53/6 17/54/6
f 30/55/2 28/56/2 31/57/2 29/58/2
f 32/59/2 35/60/2 34/61/2 33/62/2
f 22/45/5 23/63/5 31/64/5 28/46/5
f 23/63/5 13/17/5 8/20/5 31/64/5
f 9/65/4 10/66/4 13/67/4 36/68/4
f 37/69/4 40/70/4 39/71/4 38/72/4
f 9/73/6 36/74/6 5/75/6 6/76/6
f 37/77/6 38/78/6 32/79/6 33/80/6
f 19/81/5 15/43/5 28/46/5 18/82/5
f 27/83/5 22/45/5 12/42/5 26/84/5
f 16/29/1 14/28/1 15/27/1 19/30/1
f 18/31/3 28/56/3 30/55/3 17/32/3
f 24/37/7 21/36/7 22/35/7 27/38/7
f 26/39/1 12/14/1 11/13/1 25/40/1
f 17/54/3 30/49/3 21/48/3 24/51/3
f 25/52/1 11/23/1 14/22/1 16/53/1
f 40/85/5 13/17/5 23/63/5 39/86/5
f 35/87/5 31/64/5 8/20/5 34/88/5
f 32/59/1 29/58/1 31/57/1 35/60/1
f 34/61/3 8/6/3 5/5/3 33/62/3
f 37/69/7 36/68/7 13/67/7 40/70/7
f 39/71/1 23/34/1 20/33/1 38/72/1
f 33/80/3 5/75/3 36/74/3 37/77/3
f 38/78/1 20/47/1 29/50/1 32/79/1
o amobox_Cube.001
v 8.701111 0.042708 7.344182
v 9.256786 0.042708 7.899857
v 9.256786 0.508914 7.899858
v 8.701111 0.508915 7.344182
v 8.313885 0.042708 8.842759
v 8.105539 0.042708 9.051105
v 8.105539 0.508914 9.051105
v 8.313885 0.508914 8.842759
v 7.549864 0.042708 8.495429
v 7.549864 0.508915 8.495429
v 8.492883 0.042708 7.552411
v 8.492883 0.508915 7.552411
v 7.758209 0.508915 8.287084
v 9.048557 0.042708 8.108086
v 9.048557 0.508914 8.108086
v 9.070851 0.011180 8.130380
v 8.937108 0.011180 8.264123
v 8.937108 0.508914 8.264123
v 9.070851 0.508914 8.130380
v 7.898568 0.042708 8.146725
v 8.359138 0.042708 7.686154
v 8.359139 0.508915 7.686154
v 7.898569 0.508915 8.146725
v 8.336845 0.011180 7.663861
v 8.470589 0.011180 7.530117
v 8.470589 0.508915 7.530117
v 8.336845 0.508915 7.663861
v 8.914814 0.508914 8.241830
v 8.454244 0.042708 8.702400
v 8.914814 0.042708 8.241829
v 8.454244 0.508914 8.702400
v 8.476537 0.011180 8.724693
v 8.336178 0.011180 8.865052
v 8.336178 0.508914 8.865053
v 8.476538 0.508914 8.724693
v 7.758209 0.042708 8.287084
v 7.735916 0.011180 8.264791
v 7.876275 0.011180 8.124431
v 7.876275 0.508915 8.124432
v 7.735916 0.508915 8.264791
vt 0.590378 0.592690
vt 0.752820 0.592690
vt 0.752820 0.318876
vt 0.590378 0.318876
vt 0.516262 0.641040
vt 0.516262 0.803482
vt 0.618926 0.803482
vt 0.618926 0.641040
vt 0.908134 0.303482
vt 0.908134 0.141040
vt 0.634320 0.141040
vt 0.634320 0.303482
vt 0.110303 0.981318
vt 0.110303 0.818876
vt 0.007697 0.818876
vt 0.007697 0.981318
vt 0.472320 0.603675
vt 0.574984 0.603675
vt 0.574984 0.329861
vt 0.472320 0.329861
vt 0.007697 0.292496
vt 0.110303 0.292496
vt 0.110303 0.018683
vt 0.007697 0.018683
vt 0.007697 0.641039
vt 0.007697 0.803481
vt 0.110303 0.803481
vt 0.110304 0.641040
vt 0.121289 0.630054
vt 0.121289 0.803481
vt 0.187192 0.803481
vt 0.187192 0.630054
vt 0.425128 0.981318
vt 0.425128 0.818876
vt 0.198178 0.818876
vt 0.198178 0.981318
vt 0.187192 0.992303
vt 0.187192 0.818876
vt 0.121289 0.818876
vt 0.121289 0.992303
vt 0.007697 0.603675
vt 0.110303 0.603675
vt 0.110303 0.329861
vt 0.007697 0.329861
vt 0.176207 0.603675
vt 0.176207 0.329861
vt 0.425127 0.018682
vt 0.198177 0.018683
vt 0.198177 0.292497
vt 0.425128 0.292497
vt 0.187191 0.007697
vt 0.121288 0.007698
vt 0.121289 0.303482
vt 0.187192 0.303482
vt 0.198178 0.641040
vt 0.198178 0.803482
vt 0.425128 0.803482
vt 0.425128 0.641040
vt 0.436113 0.630055
vt 0.436113 0.803482
vt 0.505276 0.803482
vt 0.505276 0.630055
vt 0.403157 0.603675
vt 0.403157 0.329861
vt 0.618926 0.981318
vt 0.618926 0.818876
vt 0.516262 0.818876
vt 0.516262 0.981318
vt 0.505276 0.992303
vt 0.505276 0.818876
vt 0.436113 0.818876
vt 0.436113 0.992303
vt 0.618925 0.018682
vt 0.516261 0.018682
vt 0.516262 0.292497
vt 0.618926 0.292497
vt 0.505275 0.007697
vt 0.436112 0.007697
vt 0.436113 0.303482
vt 0.505277 0.303482
vt 0.110303 0.318876
vt 0.176207 0.318876
vt 0.176207 0.614661
vt 0.110303 0.614660
vt 0.472320 0.614661
vt 0.403157 0.614661
vt 0.403157 0.318876
vt 0.472320 0.318876
vn 0.7071 0.0000 -0.7071
vn 0.7071 0.0000 0.7071
vn -0.7071 0.0000 0.7071
vn -0.7071 0.0000 -0.7071
vn 0.0000 1.0000 0.0000
vn -0.0000 -1.0000 -0.0000
usemtl amo
s off
f 41/89/8 44/90/8 43/91/8 42/92/8
f 45/93/9 48/94/9 47/95/9 46/96/9
f 46/97/10 47/98/10 50/99/10 49/100/10
f 51/101/11 52/102/11 44/103/11 41/104/11
f 53/105/12 50/106/12 47/107/12 48/108/12
f 42/109/13 54/110/13 51/111/13 41/112/13
f 42/113/9 43/114/9 55/115/9 54/116/9
f 56/117/9 59/118/9 58/119/9 57/120/9
f 60/121/11 63/122/11 62/123/11 61/124/11
f 64/125/11 67/126/11 66/127/11 65/128/11
f 44/129/12 52/130/12 55/131/12 43/132/12
f 52/130/12 62/133/12 68/134/12 55/131/12
f 60/135/13 61/136/13 70/137/13 69/138/13
f 64/139/13 65/140/13 56/141/13 57/142/13
f 70/143/9 68/144/9 71/145/9 69/146/9
f 72/147/9 75/148/9 74/149/9 73/150/9
f 62/133/12 63/151/12 71/152/12 68/134/12
f 63/151/12 53/105/12 48/108/12 71/152/12
f 49/153/11 50/154/11 53/155/11 76/156/11
f 77/157/11 80/158/11 79/159/11 78/160/11
f 49/161/13 76/162/13 45/163/13 46/164/13
f 77/165/13 78/166/13 72/167/13 73/168/13
f 59/169/12 55/131/12 68/134/12 58/170/12
f 67/171/12 62/133/12 52/130/12 66/172/12
f 56/117/8 54/116/8 55/115/8 59/118/8
f 58/119/10 68/144/10 70/143/10 57/120/10
f 64/125/10 61/124/10 62/123/10 67/126/10
f 66/127/8 52/102/8 51/101/8 65/128/8
f 57/142/10 70/137/10 61/136/10 64/139/10
f 65/140/8 51/111/8 54/110/8 56/141/8
f 80/173/12 53/105/12 63/151/12 79/174/12
f 75/175/12 71/152/12 48/108/12 74/176/12
f 72/147/8 69/146/8 71/145/8 75/148/8
f 74/149/10 48/94/10 45/93/10 73/150/10
f 77/157/10 76/156/10 53/155/10 80/158/10
f 79/159/8 63/122/8 60/121/8 78/160/8
f 73/168/10 45/163/10 76/162/10 77/165/10
f 78/166/8 60/135/8 69/138/8 72/167/8
