# Blender v2.79 (sub 0) OBJ File: 'scena.blend'
# www.blender.org
mtllib ground.mtl
o Plane001.003
v 14.066599 0.000001 2.748978
v 2.646000 -0.000001 2.748978
v 14.066599 0.000001 14.169577
v 2.646000 -0.000001 14.169577
vt 0.000000 1.000000
vt 0.000000 0.000000
vt 1.000000 1.000000
vt 1.000000 0.000000
vn -0.0000 1.0000 0.0000
usemtl Material__27.001
s 1
f 1/1/1 2/2/1 3/3/1
f 4/4/1 3/3/1 2/2/1
o Plane001.002
v 2.636651 0.000001 -8.658704
v 2.636651 -0.000001 2.761895
v 14.057250 0.000001 -8.658704
v 14.057250 -0.000001 2.761895
vt 0.000000 1.000000
vt 0.000000 0.000000
vt 1.000000 1.000000
vt 1.000000 0.000000
vn 0.0000 1.0000 0.0000
usemtl Material__27.001
s 1
f 5/5/2 6/6/2 7/7/2
f 8/8/2 7/7/2 6/6/2
o Plane001.001
v -8.286941 0.000001 2.626816
v -8.286941 -0.000001 13.573185
v 2.659428 0.000001 2.626816
v 2.659428 -0.000001 13.573185
vt 0.000000 1.000000
vt 0.000000 0.000000
vt 1.000000 1.000000
vt 1.000000 0.000000
vn 0.0000 1.0000 0.0000
usemtl Material__27
s 1
f 9/9/3 10/10/3 11/11/3
f 12/12/3 11/11/3 10/10/3
o Plane001
v -8.287889 0.000001 -8.254904
v -8.287889 -0.000001 2.691464
v 2.658480 0.000001 -8.254904
v 2.658480 -0.000001 2.691464
vt 0.000000 1.000000
vt 0.000000 0.000000
vt 1.000000 1.000000
vt 1.000000 0.000000
vn 0.0000 1.0000 0.0000
usemtl Material__27
s 1
f 13/13/4 14/14/4 15/15/4
f 16/16/4 15/15/4 14/14/4
